<svg xmlns="http://www.w3.org/2000/svg" width="177.992" height="30" viewBox="0 0 177.992 30">
  <g id="Bridgetree_Horizontal_Vector_dg" data-name="Bridgetree Horizontal, Vector, dg" transform="translate(0.02)">
    <path id="Path_1" data-name="Path 1" d="M21.692,16.47H47V35.309a107.625,107.625,0,0,0-13.3,1.761,4.642,4.642,0,0,1-.061-2.1c.065-.429-.158-.853.084-1.19a4.662,4.662,0,0,1,1.245-1.1,2.641,2.641,0,0,1,2.229.8,8.024,8.024,0,0,0-1.275-.66c.013,1.072,1.335.719,1.669,1.188-.054-.755-.712-1.63-1.37-1.445a2.008,2.008,0,0,0-.894-.1,10.332,10.332,0,0,1,1.942-.843,2.1,2.1,0,0,1,1.734.643,6.33,6.33,0,0,0-1.018-.526c.011.854,1.065.572,1.332.946-.043-.6-.567-1.3-1.092-1.152a1.261,1.261,0,0,0-.369-.082,6.186,6.186,0,0,1,2.117-.221,5.842,5.842,0,0,1,2.793,1.5,15.581,15.581,0,0,0-2.487-1.3c.019,2.095,2.6,1.419,3.253,2.331-.112-1.627-1.66-3.543-3.062-2.649a4.82,4.82,0,0,0-1.745-.262c1.419-1.02,5.26-1.307,6.976-.49a15.787,15.787,0,0,0-2.771-.443c.681,1.981,2.917.515,3.825,1.184-.616-1.5-2.67-2.821-3.724-1.576a17.9,17.9,0,0,0-5.578,1.039,1.846,1.846,0,0,0-.692-1.006c.147-.046.511-.222.511-.222a6.282,6.282,0,0,1,1.7-.564,6.839,6.839,0,0,0-1.781.857,1.33,1.33,0,0,0,1.691-.249,1.806,1.806,0,0,1,.75-.588l.027.106.158-.158a.63.63,0,0,1,.129-.014l-.076-.039a7.015,7.015,0,0,1,2-1.387,14.845,14.845,0,0,0-2.035,1.71c1.841.739,2.177-1.772,3.217-2.008-1.419-.473-3.54.128-3.449,1.56a1.864,1.864,0,0,0-2.544.536,2.678,2.678,0,0,1-1.207-.18,3.283,3.283,0,0,0,.2-.958,5.494,5.494,0,0,1,.678-1.989,11.348,11.348,0,0,0-.52,1.986c1.493-.355.582-2.088,1.133-2.7-1.129.34-2.229,1.734-1.419,2.586A4.38,4.38,0,0,1,34.6,29.345a5.286,5.286,0,0,0-.369-1.195,7.372,7.372,0,0,0-.416-.805,4.021,4.021,0,0,0,1.316-2.32,3.912,3.912,0,0,1-.457,1.419c.946-.035.931-1.376.411-2.077.05.545-1.05,1.1-.6,1.86a2.128,2.128,0,0,1-.965.6c-.426-.8-.656-1.641.054-3.422a4.324,4.324,0,0,0-.1,2.85c1.915-.931.158-3.007.719-4.007-1.261.706-2.24,2.506-1.534,3.557a5.713,5.713,0,0,1,.925,2.383c.063.441-.966-.63-1.072-.8.489-.687-.5-1.382-.381-1.915-.616.63-.813,1.978.134,2.142a3.928,3.928,0,0,1-.268-1.48,3.784,3.784,0,0,0,.916,2.134,3.329,3.329,0,0,0-1.2-.369c-.315-.659-1.419-.415-1.954.142.534-.145,1.3.925,1.965.137a7.676,7.676,0,0,0-1.359-.277,3.4,3.4,0,0,1,1.37.188c.788.252,1.972.738,1.847,1.645A5.2,5.2,0,0,1,33,31.508a1.7,1.7,0,0,0-1.437-1.521c.438.339.044,1.6,1.075,1.652a7.724,7.724,0,0,0-.583-1.251,1.838,1.838,0,0,1,.589,1.688,5.171,5.171,0,0,1-.607.7,6.031,6.031,0,0,0-.851-2.906,1.886,1.886,0,0,1,1.616-.667,7.793,7.793,0,0,0-1.316.421c.739.72,1.4-.421,1.943-.329a1.679,1.679,0,0,0-2.43.331,2.364,2.364,0,0,0-.887-.66c-.266-1.281-2.323-1.445-3.551-.763,1.037.041,1.8,2.38,3.43,1.346a14.391,14.391,0,0,0-2.248-1.272c1.523.356,3.051,1.289,3.152,2.823a1.688,1.688,0,0,0-2.278-.142c.548-.091,1.206,1.05,1.945.331a7.754,7.754,0,0,0-1.316-.422,1.854,1.854,0,0,1,1.633.7,3.3,3.3,0,0,1-.2.775,11.049,11.049,0,0,0-3.132-1.1,3,3,0,0,0-.892-1.447,3.987,3.987,0,0,1-.473-3.384,10.4,10.4,0,0,0-.043,1.868c1.25-.621.087-1.972.449-2.631-.911.522-1.59,1.912-.805,2.536a4.922,4.922,0,0,0,.208,1.089,12.076,12.076,0,0,0-2.765-1.24,6.409,6.409,0,0,1,2.282.84c0-1.556-2.191-1.614-3.373-.812.936-.049,1.819,1.956,3.181,1a2.065,2.065,0,0,1,1.02,2.038,6.552,6.552,0,0,0-1.135.057,3.857,3.857,0,0,0-1.576-.771,2.323,2.323,0,0,1-.717-.643c.26-.835-.933-1.119-1.013-1.657-.336.8-.039,2.092.883,1.9a3.857,3.857,0,0,1-.771-1.261,6.9,6.9,0,0,0,1.2,1.576,4.913,4.913,0,0,0-1.034-.027c-1.289-.984-2.914.76-3.132,2.318.684-.838,3.116-.009,3.274-2.016a15.225,15.225,0,0,0-2.47,1.076c1.226-1.023,3.241-1.855,4.372-.315a7.611,7.611,0,0,0-.839.254c-1.261-.749-2.776.92-2.984,2.421.684-.84,3.113-.011,3.272-2.016a15.225,15.225,0,0,0-2.47,1.076A6.1,6.1,0,0,1,26.772,31.9a1.849,1.849,0,0,0-.678.315c-.682.011-1.062,1.037-.9,1.775.186-.545,1.556-.583,1.261-1.616a8.028,8.028,0,0,0-1.034,1,3.6,3.6,0,0,1,.607-.769h0v-.009a1.948,1.948,0,0,1,1.091-.6c.131.039.26.082.391.128a5.646,5.646,0,0,1,2.727,1.891,3.355,3.355,0,0,1,.479,1.932,3.562,3.562,0,0,1-.364,1.835A105.965,105.965,0,0,0,17,41.746V21.159a4.7,4.7,0,0,1,4.692-4.689ZM34.642,30.581a12.145,12.145,0,0,1-.158,1.24,16.433,16.433,0,0,1,2.679-1.151A1.081,1.081,0,0,0,36.8,30.6c-.326,0-.9-.473-.709-.829a5.491,5.491,0,0,1,1.043.671,3.03,3.03,0,0,0-.886-.739,2.27,2.27,0,0,0-.739-.073,5.275,5.275,0,0,1-.868.946Zm-.355-2.952c.555.4.878-.41,1.245-.4-.473-.3-1.313-.249-1.292.351a2.449,2.449,0,0,1,.872-.351,5.225,5.225,0,0,0-.824.4Zm3.86.082c-1.434-1.37.712-2.714.5-3.759,1.089,1.171,1.4,3.609-.325,3.869a7.176,7.176,0,0,0,.542-2.67A14.768,14.768,0,0,1,38.147,27.711Zm-9.119-.457c-.889.84-1.649-.525-2.3-.426.755-.63,2.265-.744,2.364.315a4.423,4.423,0,0,0-1.62-.408,9.141,9.141,0,0,1,1.554.522Zm.752-2.679c-1.056.616-1.488-.883-2.144-.933.878-.446,2.375-.216,2.238.848a4.445,4.445,0,0,0-1.489-.774A9.129,9.129,0,0,1,29.779,24.574Zm1,1.787c-.066-1.645-2.09-1.037-2.627-1.746.136,1.326,1.494,2.856,2.6,1.921a5.97,5.97,0,0,1-1.97-1.127,12.435,12.435,0,0,0,2,.958Zm10.752,3.855c-.024.92,1.121.659,1.393,1.073-.025-.742-.723-1.644-1.373-1.166a3.319,3.319,0,0,1,1.051.7,6.84,6.84,0,0,0-1.072-.607Zm-.985-4.486c1.959.315,1.734-2.207,2.7-2.665-1.592-.158-3.721,1.065-2.891,2.594a7.2,7.2,0,0,1,1.8-2.049,14.959,14.959,0,0,0-1.609,2.126Zm1.619.079c.594.9,1.526-.118,2.066.1-.523-.7-1.8-1.1-2.109-.2a3.928,3.928,0,0,1,1.486-.03A8.159,8.159,0,0,0,42.164,25.81Zm.965,2.722c-.088-1.31,1.562-1,1.924-1.611,0,1.059-.935,2.385-1.891,1.742A4.75,4.75,0,0,0,44.622,27.6,9.868,9.868,0,0,1,43.129,28.532ZM35.37,21.411c1.442.238,1.281-1.622,1.994-1.958-1.173-.123-2.744.775-2.136,1.9a5.286,5.286,0,0,1,1.332-1.494,10.863,10.863,0,0,0-1.19,1.556Zm2.837,2.3c1.442.238,1.283-1.622,2-1.958-1.173-.123-2.744.775-2.136,1.9a5.261,5.261,0,0,1,1.332-1.5A10.945,10.945,0,0,0,38.207,23.712Zm2.169-.441c1.37.514,1.576-1.341,2.334-1.534-1.125-.348-2.837.23-2.463,1.453a5.283,5.283,0,0,1,1.6-1.214,10.812,10.812,0,0,0-1.469,1.294Zm-4.484,1.338c2.47-.241,1.392-3.22,2.41-4.084-1.976.315-4.158,2.476-2.665,4.06a8.945,8.945,0,0,1,1.524-3.047A18.581,18.581,0,0,0,35.891,24.609ZM33,22.043c2.207.05,1.567-2.679,2.555-3.34-1.773.066-3.925,1.734-2.777,3.291a7.925,7.925,0,0,1,1.666-2.522A16.447,16.447,0,0,0,33,22.04Zm-1.6,2.919c1.962-1,.107-3.11.676-4.153-1.532.9-2.638,3.387-.9,4.213a7.961,7.961,0,0,1,.279-3.007,16.335,16.335,0,0,0-.06,2.946Zm-.646-3.705c1.658-.764.189-2.574.689-3.42-1.3.7-2.293,2.725-.873,3.467a6.637,6.637,0,0,1,.325-2.486,13.712,13.712,0,0,0-.14,2.441ZM29.384,22.7c-2.248.922-2.679-2.147-3.956-2.427,1.852-.63,4.728.236,4.166,2.289a8.748,8.748,0,0,0-2.716-1.939A18.167,18.167,0,0,1,29.384,22.7Zm-2.207,1.633c-2.121,1.024-2.727-1.918-3.978-2.106,1.753-.728,4.59-.06,4.167,1.959a8.472,8.472,0,0,0-2.744-1.71,17.557,17.557,0,0,1,2.55,1.852Zm-2.353,1.891c-1.734.375-1.652-1.891-2.533-2.252,1.419-.219,3.37.775,2.7,2.178a6.394,6.394,0,0,0-1.7-1.734,13.269,13.269,0,0,1,1.535,1.813Zm-1.77-.06c-1.1,1.392-2.475-.405-3.387-.126.946-1.069,3.094-1.546,3.467-.038a6.424,6.424,0,0,0-2.421-.258,13.229,13.229,0,0,1,2.337.422Zm-1.379,1.474c-.946.788-1.628-.63-2.29-.571.8-.593,2.33-.612,2.364.473a4.432,4.432,0,0,0-1.614-.52,9.032,9.032,0,0,1,1.534.621Zm-2.129,2.837c-.473,1.14-1.734.192-2.295.552.437-.9,1.786-1.619,2.32-.678a4.465,4.465,0,0,0-1.672.282,9.242,9.242,0,0,1,1.647-.158Zm1.734-.946c-.131-1.666-2.15-.979-2.719-1.674.186,1.333,1.616,2.837,2.7,1.844a6.04,6.04,0,0,1-2.032-1.064,12.636,12.636,0,0,0,2.049.894Z" transform="translate(-17.02 -16.47)" fill="#0866bd" fill-rule="evenodd"/>
    <path id="Path_2" data-name="Path 2" d="M47,155v3.425a4.7,4.7,0,0,1-4.689,4.687H17v-3.255A80.62,80.62,0,0,1,47,155Z" transform="translate(-17.02 -133.112)" fill="#0a387d" fill-rule="evenodd"/>
    <path id="Path_3" data-name="Path 3" d="M266.527,67.6H272.2c2.224,0,4.571.922,4.593,3.5,0,2.627-2.679,3.125-4.76,3.125h-5.516V67.6Zm0-7.647h5.516c2.06,0,4.24,1.021,4.24,3.444,0,2.38-2.085,2.995-4.073,2.995h-5.674V59.95Zm5.516-1.089H265.25v16.6h6.793c2.837,0,6.015-.922,6.015-4.331a4.241,4.241,0,0,0-3.269-4.167,3.646,3.646,0,0,0,2.7-3.564C277.49,60.242,274.838,58.861,272.043,58.861Zm15.279,10.245c3.625,0,5.4-2.364,5.375-5.078a5.128,5.128,0,0,0-5.447-5.165h-7.291V75.456h1.278V69.183h4.522l5.729,6.273h1.682l-5.849-6.349Zm-6.085-9.061h6.013A3.824,3.824,0,0,1,291.3,64.01c-.024,2.326-1.3,3.966-4.189,3.966h-5.873Zm23.59-1.182h-5.609V75.456h5.609c5.8,0,8.5-4.265,8.4-8.487A7.961,7.961,0,0,0,304.827,58.863Zm0,1.207a7.075,7.075,0,1,1,0,14.15h-4.333V60.069Zm24.488,1.065a8.634,8.634,0,0,0-6.062-2.486c-5.044,0-8.569,3.386-8.547,8.569,0,4.523,2.913,8.453,8.547,8.453a8.541,8.541,0,0,0,6.251-2.679v-6.2H322.52v1.113H328.3v4.639a7.476,7.476,0,0,1-5.044,1.92,6.889,6.889,0,0,1-7.315-7.269c-.024-3.835,2.462-7.386,7.315-7.386a7.709,7.709,0,0,1,5.327,2.129l.734-.8Zm3.512-1.067h10.182V58.863H331.575V75.456h11.719V74.227H332.826V67.689h9.707V66.527h-9.707V60.065ZM296.813,75.456V58.863h-1.261V75.456Z" transform="translate(-226.143 -52.002)" fill="#0866bd"/>
    <path id="Path_4" data-name="Path 4" d="M774.94,76.551h3.125V62.795h5.256V59.958H769.69v2.837h5.25V76.55Zm25.387-.211-5.015-5.665a4.919,4.919,0,0,0,4.191-5.222c0-2.876-2.058-5.48-5.966-5.5-2.627.024-5.255,0-7.881,0v16.6h3.122V71.013h3.006l4.831,5.539h3.718V76.34Zm-6.789-13.473a2.67,2.67,0,1,1,0,5.329h-4.76V62.867Zm20.871,10.606h-9.3V69.73h8.973V66.82H805.1V62.987h9.3V59.958H802V76.551h12.4V73.473Zm14.639,0h-9.3V69.73h8.973V66.82h-8.973V62.987h9.3V59.958H816.643V76.551h12.406Z" transform="translate(-651.077 -53.097)" fill="#0a387d"/>
  </g>
</svg>
